<svg width="51" height="50" viewBox="0 0 51 50" fill="none" xmlns="http://www.w3.org/2000/svg">
<g id="Logo" clip-path="url(#clip0_817_1478)">
<path id="Vector" d="M50.4311 26.8748H41.5004C33.6992 26.8748 27.3754 33.1988 27.3754 40.9998V49.9305C39.6877 49.0175 49.5181 39.1871 50.4311 26.8748Z" fill="#E51E3E"/>
<path id="Vector_2" d="M23.6254 49.9305V40.9998C23.6254 33.1988 17.3014 26.8748 9.50033 26.8748H0.56958C1.4825 39.1871 11.313 49.0175 23.6254 49.9305Z" fill="#E51E3E"/>
<path id="Vector_3" d="M50.4311 23.1248C49.5181 10.8123 39.6877 0.981888 27.3754 0.0689697V8.99971C27.3754 16.8008 33.6992 23.1248 41.5004 23.1248H50.4311Z" fill="#E51E3E"/>
<path id="Vector_4" d="M23.6254 0.0689697C11.313 0.981888 1.4825 10.8123 0.56958 23.1248H9.50033C17.3014 23.1248 23.6254 16.8008 23.6254 8.99971V0.0689697Z" fill="#E51E3E"/>
<path id="Vector_5" d="M17.4788 24.9997C20.9444 23.2681 23.7688 20.4437 25.5003 16.9781C27.2319 20.4437 30.0561 23.2681 33.5219 24.9997C30.0561 26.7312 27.2319 29.5556 25.5003 33.0212C23.7688 29.5556 20.9444 26.7312 17.4788 24.9997Z" fill="#FFCE50"/>
</g>
<defs>
<clipPath id="clip0_817_1478">
<rect width="50" height="50" fill="white" transform="translate(0.5)"/>
</clipPath>
</defs>
</svg>
