<svg width="152" height="33" viewBox="0 0 152 33" fill="none" xmlns="http://www.w3.org/2000/svg">
<g clip-path="url(#clip0_817_1463)">
<path d="M32.9545 17.7373H27.0602C21.9115 17.7373 17.7377 21.9111 17.7377 27.0598V32.9541C25.8639 32.3515 32.3519 25.8635 32.9545 17.7373Z" fill="#E51E3E"/>
<path d="M15.2627 32.9541V27.0598C15.2627 21.9111 11.0889 17.7373 5.94019 17.7373H0.0458984C0.648424 25.8635 7.13652 32.3515 15.2627 32.9541Z" fill="#E51E3E"/>
<path d="M32.9545 15.2623C32.3519 7.13615 25.8639 0.648058 17.7377 0.0455322V5.93982C17.7377 11.0885 21.9115 15.2623 27.0602 15.2623H32.9545Z" fill="#E51E3E"/>
<path d="M15.2627 0.0455322C7.13652 0.648058 0.648424 7.13615 0.0458984 15.2623H5.94019C11.0889 15.2623 15.2627 11.0885 15.2627 5.93982V0.0455322Z" fill="#E51E3E"/>
<path d="M11.206 16.4998C13.4933 15.357 15.3574 13.4929 16.5002 11.2056C17.6431 13.4929 19.5071 15.357 21.7945 16.4998C19.5071 17.6426 17.6431 19.5067 16.5002 21.794C15.3574 19.5067 13.4933 17.6426 11.206 16.4998Z" fill="#FFCE50"/>
</g>
<path d="M47.95 17.11H51.03L49.49 12.49L47.95 17.11ZM42.89 22.5L47.84 8.64H51.14L56.09 22.5H52.79L51.91 19.86H47.07L46.19 22.5H42.89ZM56.9666 18.32V12.38H59.9366V17.77C59.9366 19.09 60.6846 19.86 61.8066 19.86C62.9286 19.86 63.6766 19.09 63.6766 17.77V12.38H66.6466V22.5H64.4466L64.0066 21.51C63.7646 21.708 63.4786 21.906 63.1706 22.06C62.6426 22.346 61.9166 22.61 61.0366 22.61C58.6386 22.61 56.9666 20.96 56.9666 18.32ZM69.73 18.87V15.13H68.19V12.6H68.96C69.774 12.6 70.17 12.204 70.17 11.39V9.96H72.7V12.38H74.79V15.13H72.7V18.43C72.7 19.31 73.25 19.86 74.02 19.86C74.262 19.86 74.416 19.838 74.57 19.816L74.79 19.75V22.39C74.68 22.434 74.548 22.478 74.394 22.5C74.108 22.566 73.756 22.61 73.36 22.61C71.05 22.61 69.73 21.312 69.73 18.87ZM76.2303 17.44C76.2303 14.47 78.5403 12.16 81.4003 12.16C84.2603 12.16 86.5703 14.47 86.5703 17.44C86.5703 20.41 84.2603 22.72 81.4003 22.72C78.5403 22.72 76.2303 20.41 76.2303 17.44ZM83.6003 17.44C83.6003 15.878 82.6323 14.91 81.4003 14.91C80.1683 14.91 79.2003 15.878 79.2003 17.44C79.2003 19.002 80.1683 19.97 81.4003 19.97C82.6323 19.97 83.6003 19.002 83.6003 17.44ZM93.6266 22.5V8.64H99.2366C102.119 8.64 104.077 10.642 104.077 13.04C104.099 16.142 101.459 17.22 101.437 17.22L104.517 22.5H100.997L98.4666 17.88H96.8166V22.5H93.6266ZM96.8166 14.8H99.2366C100.359 14.8 100.997 14.14 100.997 13.26C100.997 12.38 100.359 11.72 99.2366 11.72H96.8166V14.8ZM105.514 17.44C105.514 14.47 107.824 12.16 110.684 12.16C113.544 12.16 115.854 14.47 115.854 17.44C115.854 20.41 113.544 22.72 110.684 22.72C107.824 22.72 105.514 20.41 105.514 17.44ZM112.884 17.44C112.884 15.878 111.916 14.91 110.684 14.91C109.452 14.91 108.484 15.878 108.484 17.44C108.484 19.002 109.452 19.97 110.684 19.97C111.916 19.97 112.884 19.002 112.884 17.44ZM117.62 22.5V8.64H120.59V22.5H117.62ZM129.067 19.31L132.147 19.53C131.619 21.18 130.035 22.72 127.417 22.72C124.689 22.72 122.357 20.41 122.357 17.44C122.357 14.47 124.667 12.16 127.527 12.16C130.277 12.16 132.477 14.25 132.477 17.44C132.477 17.682 132.433 17.902 132.411 18.1L132.367 18.43H125.437C125.679 19.2 126.405 19.97 127.527 19.97C128.077 19.97 128.473 19.816 128.715 19.64C128.869 19.552 128.979 19.442 129.067 19.31ZM125.437 16.56H129.617C129.375 15.68 128.649 14.91 127.527 14.91C126.405 14.91 125.679 15.68 125.437 16.56ZM135 18.87V15.13H133.46V12.6H134.23C135.044 12.6 135.44 12.204 135.44 11.39V9.96H137.97V12.38H140.06V15.13H137.97V18.43C137.97 19.31 138.52 19.86 139.29 19.86C139.532 19.86 139.686 19.838 139.84 19.816L140.06 19.75V22.39C139.95 22.434 139.818 22.478 139.664 22.5C139.378 22.566 139.026 22.61 138.63 22.61C136.32 22.61 135 21.312 135 18.87ZM148.32 22.5L147.88 21.51C147.638 21.708 147.352 21.906 147.044 22.06C146.516 22.346 145.79 22.61 144.91 22.61C142.71 22.61 141.5 21.422 141.5 19.75C141.5 17.748 142.93 16.34 147.55 16.34C147.55 15.35 147 14.8 146.23 14.8C145.68 14.8 145.35 15.064 145.152 15.306C145.042 15.46 144.954 15.614 144.91 15.79L141.94 15.57C142.292 13.568 143.678 12.16 146.34 12.16C148.76 12.16 150.52 13.92 150.52 16.34V22.5H148.32ZM147.55 18.54V18.1C144.998 18.1 144.47 18.65 144.47 19.42C144.47 19.97 144.91 20.41 145.68 20.41C146.802 20.41 147.55 19.662 147.55 18.54Z" fill="white"/>
<defs>
<clipPath id="clip0_817_1463">
<rect width="33" height="33" fill="white"/>
</clipPath>
</defs>
</svg>
